<mxfile host="app.diagrams.net" modified="2024-03-07T00:53:19.269Z" agent="Mozilla/5.0 (Windows NT 10.0; Win64; x64) AppleWebKit/537.36 (KHTML, like Gecko) Chrome/122.0.0.0 Safari/537.36 Edg/122.0.0.0" etag="mH4IfEinIhwIG3TxUCbx" version="24.0.2" type="device">
  <diagram name="Page-1" id="e3a06f82-3646-2815-327d-82caf3d4e204">
    <mxGraphModel dx="17367" dy="10068" grid="1" gridSize="10" guides="1" tooltips="1" connect="1" arrows="1" fold="1" page="1" pageScale="1.5" pageWidth="1169" pageHeight="826" background="none" math="0" shadow="0">
      <root>
        <mxCell id="0" style=";html=1;" />
        <mxCell id="1" style=";html=1;" parent="0" />
        <mxCell id="niRnwTXEPSCgCutxQzIc-250" value="" style="rounded=0;whiteSpace=wrap;html=1;fillColor=#fff2cc;strokeColor=#d6b656;strokeWidth=2;" parent="1" vertex="1">
          <mxGeometry x="-2390" y="520" width="2210" height="1375" as="geometry" />
        </mxCell>
        <mxCell id="niRnwTXEPSCgCutxQzIc-71" value="" style="rounded=0;whiteSpace=wrap;html=1;strokeWidth=2;" parent="1" vertex="1">
          <mxGeometry x="360" y="-2140" width="1460" height="650" as="geometry" />
        </mxCell>
        <mxCell id="niRnwTXEPSCgCutxQzIc-80" style="edgeStyle=orthogonalEdgeStyle;rounded=0;orthogonalLoop=1;jettySize=auto;html=1;" parent="1" edge="1">
          <mxGeometry relative="1" as="geometry">
            <mxPoint x="1000" y="-1740" as="sourcePoint" />
            <mxPoint x="914.9848484848485" y="-1590" as="targetPoint" />
          </mxGeometry>
        </mxCell>
        <mxCell id="niRnwTXEPSCgCutxQzIc-2" value="Central Server" style="image;html=1;image=img/lib/clip_art/networking/Cloud_Server_128x128.png;rotation=0;imageBorder=default;" parent="1" vertex="1">
          <mxGeometry x="1000" y="-1890" width="150" height="180" as="geometry" />
        </mxCell>
        <mxCell id="niRnwTXEPSCgCutxQzIc-3" value="" style="image;html=1;image=img/lib/clip_art/computers/Server_128x128.png;imageBorder=default;align=center;" parent="1" vertex="1">
          <mxGeometry x="1370" y="-1860" width="80" height="80" as="geometry" />
        </mxCell>
        <mxCell id="niRnwTXEPSCgCutxQzIc-58" style="edgeStyle=orthogonalEdgeStyle;rounded=0;orthogonalLoop=1;jettySize=auto;html=1;entryX=1;entryY=0.5;entryDx=0;entryDy=0;shape=link;" parent="1" source="niRnwTXEPSCgCutxQzIc-9" target="niRnwTXEPSCgCutxQzIc-3" edge="1">
          <mxGeometry relative="1" as="geometry" />
        </mxCell>
        <mxCell id="niRnwTXEPSCgCutxQzIc-9" value="&lt;font style=&quot;font-size: 24px;&quot;&gt;&lt;b style=&quot;&quot;&gt;Table&lt;/b&gt;&lt;/font&gt;&lt;div style=&quot;font-size: 24px;&quot;&gt;&lt;font style=&quot;font-size: 24px;&quot;&gt;&lt;b style=&quot;&quot;&gt;Screen&lt;/b&gt;&lt;/font&gt;&lt;/div&gt;" style="strokeWidth=1;html=1;shadow=0;dashed=0;shape=mxgraph.ios.iScreenNameBar;fillColor2=#000000;fillColor3=#ffffff;buttonText=;fontColor=#ffffff;fontSize=10;whiteSpace=wrap;align=center;sketch=0;" parent="1" vertex="1">
          <mxGeometry x="1520" y="-2000" width="90" height="70" as="geometry" />
        </mxCell>
        <mxCell id="niRnwTXEPSCgCutxQzIc-23" style="edgeStyle=orthogonalEdgeStyle;rounded=0;orthogonalLoop=1;jettySize=auto;html=1;shape=link;" parent="1" source="niRnwTXEPSCgCutxQzIc-20" target="niRnwTXEPSCgCutxQzIc-3" edge="1">
          <mxGeometry relative="1" as="geometry" />
        </mxCell>
        <mxCell id="niRnwTXEPSCgCutxQzIc-20" value="&lt;font style=&quot;font-size: 23px;&quot;&gt;&lt;b style=&quot;&quot;&gt;Table&lt;/b&gt;&lt;/font&gt;&lt;div style=&quot;font-size: 23px;&quot;&gt;&lt;font style=&quot;font-size: 23px;&quot;&gt;&lt;b style=&quot;&quot;&gt;Screen&lt;/b&gt;&lt;/font&gt;&lt;/div&gt;" style="strokeWidth=1;html=1;shadow=0;dashed=0;shape=mxgraph.ios.iScreenNameBar;fillColor2=#000000;fillColor3=#ffffff;buttonText=;fontColor=#ffffff;fontSize=10;whiteSpace=wrap;align=center;sketch=0;" parent="1" vertex="1">
          <mxGeometry x="1260" y="-1960" width="90" height="70" as="geometry" />
        </mxCell>
        <mxCell id="niRnwTXEPSCgCutxQzIc-25" style="edgeStyle=orthogonalEdgeStyle;rounded=0;orthogonalLoop=1;jettySize=auto;html=1;entryX=0.5;entryY=1;entryDx=0;entryDy=0;shape=link;" parent="1" source="niRnwTXEPSCgCutxQzIc-24" target="niRnwTXEPSCgCutxQzIc-3" edge="1">
          <mxGeometry relative="1" as="geometry" />
        </mxCell>
        <mxCell id="niRnwTXEPSCgCutxQzIc-24" value="&lt;font style=&quot;font-size: 23px;&quot;&gt;&lt;b style=&quot;&quot;&gt;Table&lt;/b&gt;&lt;/font&gt;&lt;div style=&quot;font-size: 23px;&quot;&gt;&lt;font style=&quot;font-size: 23px;&quot;&gt;&lt;b style=&quot;&quot;&gt;Screen&lt;/b&gt;&lt;/font&gt;&lt;/div&gt;" style="strokeWidth=1;html=1;shadow=0;dashed=0;shape=mxgraph.ios.iScreenNameBar;fillColor2=#000000;fillColor3=#ffffff;buttonText=;fontColor=#ffffff;fontSize=10;whiteSpace=wrap;align=center;sketch=0;" parent="1" vertex="1">
          <mxGeometry x="1530" y="-1730" width="90" height="70" as="geometry" />
        </mxCell>
        <mxCell id="niRnwTXEPSCgCutxQzIc-41" style="edgeStyle=orthogonalEdgeStyle;rounded=0;orthogonalLoop=1;jettySize=auto;html=1;shape=link;" parent="1" edge="1">
          <mxGeometry relative="1" as="geometry">
            <mxPoint x="700" y="-1860" as="sourcePoint" />
            <mxPoint x="1000" y="-1800" as="targetPoint" />
            <Array as="points">
              <mxPoint x="839" y="-1860" />
              <mxPoint x="839" y="-1790" />
              <mxPoint x="1001" y="-1790" />
              <mxPoint x="1001" y="-1800" />
            </Array>
          </mxGeometry>
        </mxCell>
        <mxCell id="niRnwTXEPSCgCutxQzIc-33" value="BRANCH" style="image;html=1;image=img/lib/clip_art/computers/Server_128x128.png;imageBorder=default;" parent="1" vertex="1">
          <mxGeometry x="640" y="-1900" width="80" height="80" as="geometry" />
        </mxCell>
        <mxCell id="niRnwTXEPSCgCutxQzIc-35" value="&lt;font style=&quot;font-size: 24px;&quot;&gt;&lt;b style=&quot;&quot;&gt;Table&lt;/b&gt;&lt;/font&gt;&lt;div style=&quot;font-size: 24px;&quot;&gt;&lt;font style=&quot;font-size: 24px;&quot;&gt;&lt;b style=&quot;&quot;&gt;Screen&lt;/b&gt;&lt;/font&gt;&lt;/div&gt;" style="strokeWidth=1;html=1;shadow=0;dashed=0;shape=mxgraph.ios.iScreenNameBar;fillColor2=#000000;fillColor3=#ffffff;buttonText=;fontColor=#ffffff;fontSize=10;whiteSpace=wrap;align=center;sketch=0;" parent="1" vertex="1">
          <mxGeometry x="470" y="-1800" width="90" height="70" as="geometry" />
        </mxCell>
        <mxCell id="niRnwTXEPSCgCutxQzIc-36" style="edgeStyle=orthogonalEdgeStyle;rounded=0;orthogonalLoop=1;jettySize=auto;html=1;shape=link;" parent="1" source="niRnwTXEPSCgCutxQzIc-37" target="niRnwTXEPSCgCutxQzIc-33" edge="1">
          <mxGeometry relative="1" as="geometry">
            <Array as="points">
              <mxPoint x="650" y="-1965" />
            </Array>
          </mxGeometry>
        </mxCell>
        <mxCell id="niRnwTXEPSCgCutxQzIc-37" value="&lt;font style=&quot;font-size: 23px;&quot;&gt;&lt;b style=&quot;&quot;&gt;Table&lt;/b&gt;&lt;/font&gt;&lt;div style=&quot;font-size: 23px;&quot;&gt;&lt;font style=&quot;font-size: 23px;&quot;&gt;&lt;b style=&quot;&quot;&gt;Screen&lt;/b&gt;&lt;/font&gt;&lt;/div&gt;" style="strokeWidth=1;html=1;shadow=0;dashed=0;shape=mxgraph.ios.iScreenNameBar;fillColor2=#000000;fillColor3=#ffffff;buttonText=;fontColor=#ffffff;fontSize=10;whiteSpace=wrap;align=center;sketch=0;" parent="1" vertex="1">
          <mxGeometry x="460" y="-2000" width="90" height="70" as="geometry" />
        </mxCell>
        <mxCell id="niRnwTXEPSCgCutxQzIc-40" style="edgeStyle=orthogonalEdgeStyle;rounded=0;orthogonalLoop=1;jettySize=auto;html=1;exitX=0.475;exitY=0.003;exitDx=0;exitDy=0;entryX=0;entryY=0.5;entryDx=0;entryDy=0;exitPerimeter=0;shape=link;" parent="1" source="niRnwTXEPSCgCutxQzIc-35" target="niRnwTXEPSCgCutxQzIc-33" edge="1">
          <mxGeometry relative="1" as="geometry" />
        </mxCell>
        <mxCell id="niRnwTXEPSCgCutxQzIc-63" style="edgeStyle=orthogonalEdgeStyle;rounded=0;orthogonalLoop=1;jettySize=auto;html=1;shape=link;" parent="1" source="niRnwTXEPSCgCutxQzIc-62" edge="1">
          <mxGeometry relative="1" as="geometry">
            <mxPoint x="710" y="-1900" as="targetPoint" />
            <Array as="points">
              <mxPoint x="710" y="-2005" />
              <mxPoint x="710" y="-1900" />
            </Array>
          </mxGeometry>
        </mxCell>
        <mxCell id="niRnwTXEPSCgCutxQzIc-62" value="&lt;font style=&quot;font-size: 23px;&quot;&gt;&lt;b style=&quot;&quot;&gt;Table&lt;/b&gt;&lt;/font&gt;&lt;div style=&quot;font-size: 23px;&quot;&gt;&lt;font style=&quot;font-size: 23px;&quot;&gt;&lt;b style=&quot;&quot;&gt;Screen&lt;/b&gt;&lt;/font&gt;&lt;/div&gt;" style="strokeWidth=1;html=1;shadow=0;dashed=0;shape=mxgraph.ios.iScreenNameBar;fillColor2=#000000;fillColor3=#ffffff;buttonText=;fontColor=#ffffff;fontSize=10;whiteSpace=wrap;align=center;sketch=0;" parent="1" vertex="1">
          <mxGeometry x="730" y="-2040" width="90" height="70" as="geometry" />
        </mxCell>
        <mxCell id="niRnwTXEPSCgCutxQzIc-64" style="edgeStyle=orthogonalEdgeStyle;rounded=0;orthogonalLoop=1;jettySize=auto;html=1;entryX=1;entryY=0.556;entryDx=0;entryDy=0;entryPerimeter=0;shape=link;" parent="1" source="niRnwTXEPSCgCutxQzIc-3" target="niRnwTXEPSCgCutxQzIc-2" edge="1">
          <mxGeometry relative="1" as="geometry" />
        </mxCell>
        <mxCell id="niRnwTXEPSCgCutxQzIc-67" value="&lt;font style=&quot;font-size: 23px;&quot;&gt;&lt;b style=&quot;&quot;&gt;Table&lt;/b&gt;&lt;/font&gt;&lt;div style=&quot;font-size: 23px;&quot;&gt;&lt;font style=&quot;font-size: 23px;&quot;&gt;&lt;b style=&quot;&quot;&gt;Screen&lt;/b&gt;&lt;/font&gt;&lt;/div&gt;" style="strokeWidth=1;html=1;shadow=0;dashed=0;shape=mxgraph.ios.iScreenNameBar;fillColor2=#000000;fillColor3=#ffffff;buttonText=;fontColor=#ffffff;fontSize=10;whiteSpace=wrap;align=center;sketch=0;" parent="1" vertex="1">
          <mxGeometry x="1540" y="-1720" width="90" height="70" as="geometry" />
        </mxCell>
        <mxCell id="niRnwTXEPSCgCutxQzIc-78" value="" style="shape=cylinder3;whiteSpace=wrap;html=1;boundedLbl=1;backgroundOutline=1;size=15;" parent="1" vertex="1">
          <mxGeometry x="890" y="-1650" width="50" height="60" as="geometry" />
        </mxCell>
        <mxCell id="niRnwTXEPSCgCutxQzIc-136" value="" style="shape=rect;strokeColor=none;fillColor=#ffffff;gradientColor=none;shadow=0;" parent="1" vertex="1">
          <mxGeometry x="-1670" y="1531" width="190" height="80" as="geometry" />
        </mxCell>
        <mxCell id="niRnwTXEPSCgCutxQzIc-137" value="BRANCH 1" style="shape=rect;strokeColor=none;fontSize=10;fontColor=#000000;resizeWidth=1;align=left;spacingLeft=25;spacingTop=2;whiteSpace=wrap;html=1;" parent="niRnwTXEPSCgCutxQzIc-136" vertex="1">
          <mxGeometry width="190" height="20" relative="1" as="geometry" />
        </mxCell>
        <mxCell id="niRnwTXEPSCgCutxQzIc-138" value="" style="shape=rect;rounded=1;rSize=3;strokeColor=none;fillColor=#FF9501;" parent="niRnwTXEPSCgCutxQzIc-137" vertex="1">
          <mxGeometry y="0.5" width="15" height="15" relative="1" as="geometry">
            <mxPoint x="5" y="-7.5" as="offset" />
          </mxGeometry>
        </mxCell>
        <mxCell id="niRnwTXEPSCgCutxQzIc-139" value="" style="shape=mxgraph.ios7.misc.right;strokeColor=#666666;" parent="niRnwTXEPSCgCutxQzIc-137" vertex="1">
          <mxGeometry x="1" y="0.5" width="5" height="10" relative="1" as="geometry">
            <mxPoint x="-15" y="-5" as="offset" />
          </mxGeometry>
        </mxCell>
        <mxCell id="niRnwTXEPSCgCutxQzIc-156" value="BRANCH 2" style="shape=rect;strokeColor=none;fontSize=10;fontColor=#000000;resizeWidth=1;align=left;spacingLeft=25;spacingTop=2;whiteSpace=wrap;html=1;" parent="niRnwTXEPSCgCutxQzIc-136" vertex="1">
          <mxGeometry width="190" height="20" relative="1" as="geometry">
            <mxPoint y="70" as="offset" />
          </mxGeometry>
        </mxCell>
        <mxCell id="niRnwTXEPSCgCutxQzIc-157" value="" style="shape=rect;rounded=1;rSize=3;strokeColor=none;fillColor=#FF3B2F;" parent="niRnwTXEPSCgCutxQzIc-156" vertex="1">
          <mxGeometry y="0.5" width="15" height="15" relative="1" as="geometry">
            <mxPoint x="5" y="-7.5" as="offset" />
          </mxGeometry>
        </mxCell>
        <mxCell id="niRnwTXEPSCgCutxQzIc-158" value="" style="shape=mxgraph.ios7.misc.right;strokeColor=#666666;" parent="niRnwTXEPSCgCutxQzIc-156" vertex="1">
          <mxGeometry x="1" y="0.5" width="5" height="10" relative="1" as="geometry">
            <mxPoint x="-15" y="-5" as="offset" />
          </mxGeometry>
        </mxCell>
        <mxCell id="niRnwTXEPSCgCutxQzIc-159" value="BRANCH 3" style="shape=rect;strokeColor=none;fontSize=10;fontColor=#000000;resizeWidth=1;align=left;spacingLeft=25;spacingTop=2;whiteSpace=wrap;html=1;" parent="niRnwTXEPSCgCutxQzIc-136" vertex="1">
          <mxGeometry width="190" height="20" relative="1" as="geometry">
            <mxPoint y="90" as="offset" />
          </mxGeometry>
        </mxCell>
        <mxCell id="niRnwTXEPSCgCutxQzIc-160" value="" style="shape=rect;rounded=1;rSize=3;strokeColor=none;fillColor=#4CDA64;" parent="niRnwTXEPSCgCutxQzIc-159" vertex="1">
          <mxGeometry y="0.5" width="15" height="15" relative="1" as="geometry">
            <mxPoint x="5" y="-7.5" as="offset" />
          </mxGeometry>
        </mxCell>
        <mxCell id="niRnwTXEPSCgCutxQzIc-161" value="" style="shape=mxgraph.ios7.misc.right;strokeColor=#666666;" parent="niRnwTXEPSCgCutxQzIc-159" vertex="1">
          <mxGeometry x="1" y="0.5" width="5" height="10" relative="1" as="geometry">
            <mxPoint x="-15" y="-5" as="offset" />
          </mxGeometry>
        </mxCell>
        <mxCell id="niRnwTXEPSCgCutxQzIc-162" value="BRANCH 4" style="shape=rect;strokeColor=none;fontSize=10;fontColor=#000000;resizeWidth=1;align=left;spacingLeft=25;spacingTop=2;whiteSpace=wrap;html=1;" parent="niRnwTXEPSCgCutxQzIc-136" vertex="1">
          <mxGeometry width="190" height="20" relative="1" as="geometry">
            <mxPoint y="110" as="offset" />
          </mxGeometry>
        </mxCell>
        <mxCell id="niRnwTXEPSCgCutxQzIc-163" value="" style="shape=rect;rounded=1;rSize=3;strokeColor=none;fillColor=#007AFF;" parent="niRnwTXEPSCgCutxQzIc-162" vertex="1">
          <mxGeometry y="0.5" width="15" height="15" relative="1" as="geometry">
            <mxPoint x="5" y="-7.5" as="offset" />
          </mxGeometry>
        </mxCell>
        <mxCell id="niRnwTXEPSCgCutxQzIc-164" value="" style="shape=mxgraph.ios7.misc.right;strokeColor=#666666;" parent="niRnwTXEPSCgCutxQzIc-162" vertex="1">
          <mxGeometry x="1" y="0.5" width="5" height="10" relative="1" as="geometry">
            <mxPoint x="-15" y="-5" as="offset" />
          </mxGeometry>
        </mxCell>
        <mxCell id="niRnwTXEPSCgCutxQzIc-155" style="edgeStyle=orthogonalEdgeStyle;rounded=0;orthogonalLoop=1;jettySize=auto;html=1;exitX=0.5;exitY=1;exitDx=0;exitDy=0;" parent="1" source="niRnwTXEPSCgCutxQzIc-136" target="niRnwTXEPSCgCutxQzIc-136" edge="1">
          <mxGeometry relative="1" as="geometry" />
        </mxCell>
        <mxCell id="niRnwTXEPSCgCutxQzIc-184" value="" style="rounded=0;whiteSpace=wrap;html=1;strokeWidth=2;" parent="1" vertex="1">
          <mxGeometry x="-2320" y="1450" width="860" height="401" as="geometry" />
        </mxCell>
        <mxCell id="niRnwTXEPSCgCutxQzIc-185" value="&lt;font style=&quot;font-size: 19px;&quot;&gt;ADMIN PANEL&lt;/font&gt;" style="text;html=1;align=center;verticalAlign=middle;whiteSpace=wrap;rounded=0;" parent="1" vertex="1">
          <mxGeometry x="-1955" y="1480" width="130" height="30" as="geometry" />
        </mxCell>
        <mxCell id="niRnwTXEPSCgCutxQzIc-186" value="" style="shape=rect;strokeColor=none;fillColor=#ffffff;gradientColor=none;shadow=0;" parent="1" vertex="1">
          <mxGeometry x="-2290" y="1551" width="190" height="80" as="geometry" />
        </mxCell>
        <mxCell id="niRnwTXEPSCgCutxQzIc-187" value="BRANCH 1" style="shape=rect;strokeColor=none;fontSize=10;fontColor=#000000;resizeWidth=1;align=left;spacingLeft=25;spacingTop=2;whiteSpace=wrap;html=1;" parent="niRnwTXEPSCgCutxQzIc-186" vertex="1">
          <mxGeometry width="190" height="20" relative="1" as="geometry" />
        </mxCell>
        <mxCell id="niRnwTXEPSCgCutxQzIc-188" value="" style="shape=rect;rounded=1;rSize=3;strokeColor=none;fillColor=#FF9501;" parent="niRnwTXEPSCgCutxQzIc-187" vertex="1">
          <mxGeometry y="0.5" width="15" height="15" relative="1" as="geometry">
            <mxPoint x="5" y="-7.5" as="offset" />
          </mxGeometry>
        </mxCell>
        <mxCell id="niRnwTXEPSCgCutxQzIc-189" value="" style="shape=mxgraph.ios7.misc.right;strokeColor=#666666;" parent="niRnwTXEPSCgCutxQzIc-187" vertex="1">
          <mxGeometry x="1" y="0.5" width="5" height="10" relative="1" as="geometry">
            <mxPoint x="-15" y="-5" as="offset" />
          </mxGeometry>
        </mxCell>
        <mxCell id="niRnwTXEPSCgCutxQzIc-190" value="BRANCH 2" style="shape=rect;strokeColor=none;fontSize=10;fontColor=#000000;resizeWidth=1;align=left;spacingLeft=25;spacingTop=2;whiteSpace=wrap;html=1;" parent="niRnwTXEPSCgCutxQzIc-186" vertex="1">
          <mxGeometry width="190" height="20" relative="1" as="geometry">
            <mxPoint y="70" as="offset" />
          </mxGeometry>
        </mxCell>
        <mxCell id="niRnwTXEPSCgCutxQzIc-191" value="" style="shape=rect;rounded=1;rSize=3;strokeColor=none;fillColor=#FF3B2F;" parent="niRnwTXEPSCgCutxQzIc-190" vertex="1">
          <mxGeometry y="0.5" width="15" height="15" relative="1" as="geometry">
            <mxPoint x="5" y="-7.5" as="offset" />
          </mxGeometry>
        </mxCell>
        <mxCell id="niRnwTXEPSCgCutxQzIc-192" value="" style="shape=mxgraph.ios7.misc.right;strokeColor=#666666;" parent="niRnwTXEPSCgCutxQzIc-190" vertex="1">
          <mxGeometry x="1" y="0.5" width="5" height="10" relative="1" as="geometry">
            <mxPoint x="-15" y="-5" as="offset" />
          </mxGeometry>
        </mxCell>
        <mxCell id="niRnwTXEPSCgCutxQzIc-193" value="BRANCH 3" style="shape=rect;strokeColor=none;fontSize=10;fontColor=#000000;resizeWidth=1;align=left;spacingLeft=25;spacingTop=2;whiteSpace=wrap;html=1;" parent="niRnwTXEPSCgCutxQzIc-186" vertex="1">
          <mxGeometry width="190" height="20" relative="1" as="geometry">
            <mxPoint y="90" as="offset" />
          </mxGeometry>
        </mxCell>
        <mxCell id="niRnwTXEPSCgCutxQzIc-194" value="" style="shape=rect;rounded=1;rSize=3;strokeColor=none;fillColor=#4CDA64;" parent="niRnwTXEPSCgCutxQzIc-193" vertex="1">
          <mxGeometry y="0.5" width="15" height="15" relative="1" as="geometry">
            <mxPoint x="5" y="-7.5" as="offset" />
          </mxGeometry>
        </mxCell>
        <mxCell id="niRnwTXEPSCgCutxQzIc-195" value="" style="shape=mxgraph.ios7.misc.right;strokeColor=#666666;" parent="niRnwTXEPSCgCutxQzIc-193" vertex="1">
          <mxGeometry x="1" y="0.5" width="5" height="10" relative="1" as="geometry">
            <mxPoint x="-15" y="-5" as="offset" />
          </mxGeometry>
        </mxCell>
        <mxCell id="niRnwTXEPSCgCutxQzIc-196" value="BRANCH 4" style="shape=rect;strokeColor=none;fontSize=10;fontColor=#000000;resizeWidth=1;align=left;spacingLeft=25;spacingTop=2;whiteSpace=wrap;html=1;" parent="niRnwTXEPSCgCutxQzIc-186" vertex="1">
          <mxGeometry width="190" height="20" relative="1" as="geometry">
            <mxPoint y="110" as="offset" />
          </mxGeometry>
        </mxCell>
        <mxCell id="niRnwTXEPSCgCutxQzIc-197" value="" style="shape=rect;rounded=1;rSize=3;strokeColor=none;fillColor=#007AFF;" parent="niRnwTXEPSCgCutxQzIc-196" vertex="1">
          <mxGeometry y="0.5" width="15" height="15" relative="1" as="geometry">
            <mxPoint x="5" y="-7.5" as="offset" />
          </mxGeometry>
        </mxCell>
        <mxCell id="niRnwTXEPSCgCutxQzIc-198" value="" style="shape=mxgraph.ios7.misc.right;strokeColor=#666666;" parent="niRnwTXEPSCgCutxQzIc-196" vertex="1">
          <mxGeometry x="1" y="0.5" width="5" height="10" relative="1" as="geometry">
            <mxPoint x="-15" y="-5" as="offset" />
          </mxGeometry>
        </mxCell>
        <mxCell id="niRnwTXEPSCgCutxQzIc-199" style="edgeStyle=orthogonalEdgeStyle;rounded=0;orthogonalLoop=1;jettySize=auto;html=1;exitX=0.5;exitY=1;exitDx=0;exitDy=0;" parent="1" source="niRnwTXEPSCgCutxQzIc-186" target="niRnwTXEPSCgCutxQzIc-186" edge="1">
          <mxGeometry relative="1" as="geometry" />
        </mxCell>
        <mxCell id="niRnwTXEPSCgCutxQzIc-200" value="" style="shape=rect;strokeColor=none;fillColor=#ffffff;gradientColor=none;shadow=0;" parent="1" vertex="1">
          <mxGeometry x="-2100" y="1551" width="160" height="70" as="geometry" />
        </mxCell>
        <mxCell id="niRnwTXEPSCgCutxQzIc-201" value="SCREENS STATUS" style="shape=rect;strokeColor=none;fontSize=10;fontColor=#000000;resizeWidth=1;align=left;spacingLeft=25;spacingTop=2;whiteSpace=wrap;html=1;" parent="niRnwTXEPSCgCutxQzIc-200" vertex="1">
          <mxGeometry width="160" height="20" relative="1" as="geometry" />
        </mxCell>
        <mxCell id="niRnwTXEPSCgCutxQzIc-202" value="" style="shape=rect;rounded=1;rSize=3;strokeColor=none;fillColor=#FF9501;" parent="niRnwTXEPSCgCutxQzIc-201" vertex="1">
          <mxGeometry y="0.5" width="15" height="15" relative="1" as="geometry">
            <mxPoint x="5" y="-7.5" as="offset" />
          </mxGeometry>
        </mxCell>
        <mxCell id="niRnwTXEPSCgCutxQzIc-203" value="" style="shape=mxgraph.ios7.misc.right;strokeColor=#666666;" parent="niRnwTXEPSCgCutxQzIc-201" vertex="1">
          <mxGeometry x="1" y="0.5" width="5" height="10" relative="1" as="geometry">
            <mxPoint x="-15" y="-5" as="offset" />
          </mxGeometry>
        </mxCell>
        <mxCell id="niRnwTXEPSCgCutxQzIc-204" value="UPDATE MENU" style="shape=rect;strokeColor=none;fontSize=10;fontColor=#000000;resizeWidth=1;align=left;spacingLeft=25;spacingTop=2;whiteSpace=wrap;html=1;" parent="niRnwTXEPSCgCutxQzIc-200" vertex="1">
          <mxGeometry width="160" height="20" relative="1" as="geometry">
            <mxPoint y="20" as="offset" />
          </mxGeometry>
        </mxCell>
        <mxCell id="niRnwTXEPSCgCutxQzIc-205" value="" style="shape=rect;rounded=1;rSize=3;strokeColor=none;fillColor=#5855D6;" parent="niRnwTXEPSCgCutxQzIc-204" vertex="1">
          <mxGeometry y="0.5" width="15" height="15" relative="1" as="geometry">
            <mxPoint x="5" y="-7.5" as="offset" />
          </mxGeometry>
        </mxCell>
        <mxCell id="niRnwTXEPSCgCutxQzIc-206" value="" style="shape=mxgraph.ios7.misc.right;strokeColor=#666666;" parent="niRnwTXEPSCgCutxQzIc-204" vertex="1">
          <mxGeometry x="1" y="0.5" width="5" height="10" relative="1" as="geometry">
            <mxPoint x="-15" y="-5" as="offset" />
          </mxGeometry>
        </mxCell>
        <mxCell id="niRnwTXEPSCgCutxQzIc-207" value="UPDATE ADS" style="shape=rect;strokeColor=none;fontSize=10;fontColor=#000000;resizeWidth=1;align=left;spacingLeft=25;spacingTop=2;whiteSpace=wrap;html=1;" parent="niRnwTXEPSCgCutxQzIc-200" vertex="1">
          <mxGeometry width="160" height="20" relative="1" as="geometry">
            <mxPoint y="40" as="offset" />
          </mxGeometry>
        </mxCell>
        <mxCell id="niRnwTXEPSCgCutxQzIc-208" value="" style="shape=rect;rounded=1;rSize=3;strokeColor=none;fillColor=#8F8E94;" parent="niRnwTXEPSCgCutxQzIc-207" vertex="1">
          <mxGeometry y="0.5" width="15" height="15" relative="1" as="geometry">
            <mxPoint x="5" y="-7.5" as="offset" />
          </mxGeometry>
        </mxCell>
        <mxCell id="niRnwTXEPSCgCutxQzIc-209" value="" style="shape=mxgraph.ios7.misc.right;strokeColor=#666666;" parent="niRnwTXEPSCgCutxQzIc-207" vertex="1">
          <mxGeometry x="1" y="0.5" width="5" height="10" relative="1" as="geometry">
            <mxPoint x="-15" y="-5" as="offset" />
          </mxGeometry>
        </mxCell>
        <mxCell id="9W12TI6e14hfP81aTXPU-1" value="" style="rounded=0;whiteSpace=wrap;html=1;fillColor=#fff2cc;strokeColor=#d6b656;strokeWidth=2;" vertex="1" parent="1">
          <mxGeometry x="-3050" y="2730" width="800" height="350" as="geometry" />
        </mxCell>
        <mxCell id="9W12TI6e14hfP81aTXPU-2" style="edgeStyle=orthogonalEdgeStyle;rounded=0;orthogonalLoop=1;jettySize=auto;html=1;exitX=0.5;exitY=0;exitDx=0;exitDy=0;" edge="1" parent="1" source="9W12TI6e14hfP81aTXPU-3" target="9W12TI6e14hfP81aTXPU-5">
          <mxGeometry relative="1" as="geometry">
            <mxPoint x="-2880" y="2820.0044827586207" as="sourcePoint" />
            <mxPoint x="-2550" y="2824.9700000000003" as="targetPoint" />
            <Array as="points">
              <mxPoint x="-2700" y="2800" />
              <mxPoint x="-2465" y="2800" />
            </Array>
          </mxGeometry>
        </mxCell>
        <mxCell id="9W12TI6e14hfP81aTXPU-3" value="Branch Server" style="image;html=1;image=img/lib/clip_art/computers/Server_128x128.png;imageBorder=default;align=center;shadow=1;" vertex="1" parent="1">
          <mxGeometry x="-2740" y="2860" width="80" height="80" as="geometry" />
        </mxCell>
        <mxCell id="9W12TI6e14hfP81aTXPU-4" style="edgeStyle=orthogonalEdgeStyle;rounded=0;orthogonalLoop=1;jettySize=auto;html=1;" edge="1" parent="1" source="9W12TI6e14hfP81aTXPU-5">
          <mxGeometry relative="1" as="geometry">
            <mxPoint x="-2462.5699999999997" y="2960.42" as="sourcePoint" />
            <mxPoint x="-2700" y="2960" as="targetPoint" />
            <Array as="points">
              <mxPoint x="-2463" y="3050" />
              <mxPoint x="-2700" y="3050" />
            </Array>
          </mxGeometry>
        </mxCell>
        <mxCell id="9W12TI6e14hfP81aTXPU-5" value="&lt;font style=&quot;font-size: 23px;&quot;&gt;&lt;b style=&quot;&quot;&gt;Table&lt;/b&gt;&lt;/font&gt;&lt;div style=&quot;font-size: 23px;&quot;&gt;&lt;font style=&quot;font-size: 23px;&quot;&gt;&lt;b style=&quot;&quot;&gt;Screen&lt;/b&gt;&lt;/font&gt;&lt;/div&gt;" style="strokeWidth=1;html=1;shadow=0;dashed=0;shape=mxgraph.ios.iScreenNameBar;fillColor2=#000000;fillColor3=#ffffff;buttonText=;fontColor=#ffffff;fontSize=10;whiteSpace=wrap;align=center;sketch=0;" vertex="1" parent="1">
          <mxGeometry x="-2510" y="2860" width="90" height="70" as="geometry" />
        </mxCell>
        <mxCell id="9W12TI6e14hfP81aTXPU-6" style="edgeStyle=orthogonalEdgeStyle;rounded=0;orthogonalLoop=1;jettySize=auto;html=1;entryX=0.25;entryY=1;entryDx=0;entryDy=0;" edge="1" parent="1" source="9W12TI6e14hfP81aTXPU-7">
          <mxGeometry relative="1" as="geometry">
            <mxPoint x="-2933.47" y="2950" as="sourcePoint" />
            <mxPoint x="-2720" y="2960" as="targetPoint" />
            <Array as="points">
              <mxPoint x="-2933" y="3060" />
              <mxPoint x="-2720" y="3060" />
            </Array>
          </mxGeometry>
        </mxCell>
        <mxCell id="9W12TI6e14hfP81aTXPU-7" value="&lt;font style=&quot;font-size: 23px;&quot;&gt;&lt;b style=&quot;&quot;&gt;Table&lt;/b&gt;&lt;/font&gt;&lt;div style=&quot;font-size: 23px;&quot;&gt;&lt;font style=&quot;font-size: 23px;&quot;&gt;&lt;b style=&quot;&quot;&gt;Screen&lt;/b&gt;&lt;/font&gt;&lt;/div&gt;" style="strokeWidth=1;html=1;shadow=0;dashed=0;shape=mxgraph.ios.iScreenNameBar;fillColor2=#000000;fillColor3=#ffffff;buttonText=;fontColor=#ffffff;fontSize=10;whiteSpace=wrap;align=center;sketch=0;" vertex="1" parent="1">
          <mxGeometry x="-2980" y="2860" width="90" height="70" as="geometry" />
        </mxCell>
        <mxCell id="9W12TI6e14hfP81aTXPU-8" style="edgeStyle=orthogonalEdgeStyle;rounded=0;orthogonalLoop=1;jettySize=auto;html=1;entryX=0.528;entryY=0.014;entryDx=0;entryDy=0;entryPerimeter=0;exitX=0.5;exitY=0;exitDx=0;exitDy=0;" edge="1" parent="1" source="9W12TI6e14hfP81aTXPU-3" target="9W12TI6e14hfP81aTXPU-7">
          <mxGeometry relative="1" as="geometry">
            <Array as="points">
              <mxPoint x="-2720" y="2860" />
              <mxPoint x="-2720" y="2800" />
              <mxPoint x="-2932" y="2800" />
            </Array>
          </mxGeometry>
        </mxCell>
        <mxCell id="9W12TI6e14hfP81aTXPU-9" value="MENU UPDATE" style="text;html=1;align=center;verticalAlign=middle;whiteSpace=wrap;rounded=0;" vertex="1" parent="1">
          <mxGeometry x="-2630" y="2760" width="60" height="30" as="geometry" />
        </mxCell>
        <mxCell id="9W12TI6e14hfP81aTXPU-10" value="AD UPDATE" style="text;html=1;align=center;verticalAlign=middle;whiteSpace=wrap;rounded=0;" vertex="1" parent="1">
          <mxGeometry x="-2876.5" y="2760" width="60" height="30" as="geometry" />
        </mxCell>
        <mxCell id="9W12TI6e14hfP81aTXPU-11" value="SCREEN STATUS" style="text;html=1;align=center;verticalAlign=middle;whiteSpace=wrap;rounded=0;" vertex="1" parent="1">
          <mxGeometry x="-2860" y="3030" width="60" height="30" as="geometry" />
        </mxCell>
        <mxCell id="9W12TI6e14hfP81aTXPU-12" value="SCREEN STATUS&amp;nbsp;" style="text;html=1;align=center;verticalAlign=middle;whiteSpace=wrap;rounded=0;" vertex="1" parent="1">
          <mxGeometry x="-2600" y="3010" width="60" height="30" as="geometry" />
        </mxCell>
        <mxCell id="9W12TI6e14hfP81aTXPU-13" value="&lt;font style=&quot;font-size: 25px;&quot;&gt;&lt;b&gt;&lt;u&gt;DATABASE&lt;/u&gt;&lt;/b&gt;&lt;/font&gt;&lt;div&gt;&lt;font style=&quot;font-size: 25px;&quot;&gt;&lt;b&gt;&lt;br&gt;&lt;/b&gt;&lt;/font&gt;&lt;/div&gt;&lt;div&gt;&lt;font style=&quot;font-size: 21px;&quot;&gt;MENUS SCHEMA&lt;/font&gt;&lt;/div&gt;&lt;div&gt;&lt;font style=&quot;font-size: 21px;&quot;&gt;SCREENS STATUS SCHEMA&lt;/font&gt;&lt;/div&gt;&lt;div&gt;&lt;font style=&quot;font-size: 21px;&quot;&gt;ADS SCHEMA&lt;/font&gt;&lt;/div&gt;" style="shape=cylinder3;whiteSpace=wrap;html=1;boundedLbl=1;backgroundOutline=1;size=15;" vertex="1" parent="1">
          <mxGeometry x="-750" y="1340" width="360" height="430" as="geometry" />
        </mxCell>
        <mxCell id="9W12TI6e14hfP81aTXPU-14" value="&lt;span style=&quot;font-size: 37px;&quot;&gt;&lt;b&gt;BACKEND&lt;/b&gt;&lt;/span&gt;" style="rounded=0;whiteSpace=wrap;html=1;" vertex="1" parent="1">
          <mxGeometry x="-1550" y="820" width="720" height="390" as="geometry" />
        </mxCell>
        <mxCell id="9W12TI6e14hfP81aTXPU-16" style="edgeStyle=orthogonalEdgeStyle;rounded=0;orthogonalLoop=1;jettySize=auto;html=1;entryX=0.5;entryY=0;entryDx=0;entryDy=0;entryPerimeter=0;shape=link;" edge="1" parent="1" source="9W12TI6e14hfP81aTXPU-14" target="9W12TI6e14hfP81aTXPU-13">
          <mxGeometry relative="1" as="geometry" />
        </mxCell>
        <mxCell id="9W12TI6e14hfP81aTXPU-19" value="&lt;font size=&quot;1&quot; style=&quot;&quot;&gt;&lt;b style=&quot;font-size: 50px;&quot;&gt;CENTRAL SERVER&lt;/b&gt;&lt;/font&gt;" style="text;html=1;align=center;verticalAlign=middle;whiteSpace=wrap;rounded=0;" vertex="1" parent="1">
          <mxGeometry x="-1390" y="550" width="360" height="220" as="geometry" />
        </mxCell>
        <mxCell id="9W12TI6e14hfP81aTXPU-20" value="" style="rounded=0;whiteSpace=wrap;html=1;fillColor=#dae8fc;strokeColor=#6c8ebf;strokeWidth=2;" vertex="1" parent="1">
          <mxGeometry x="-690" y="-600" width="1330" height="860" as="geometry" />
        </mxCell>
        <mxCell id="9W12TI6e14hfP81aTXPU-21" value="&lt;font style=&quot;font-size: 22px;&quot;&gt;&lt;b&gt;SYNC DATA (ADS / MENUS)&lt;/b&gt;&lt;/font&gt;" style="rounded=0;whiteSpace=wrap;html=1;" vertex="1" parent="1">
          <mxGeometry x="-480" y="-270" width="230" height="150" as="geometry" />
        </mxCell>
        <mxCell id="9W12TI6e14hfP81aTXPU-24" value="&lt;font style=&quot;font-size: 22px;&quot;&gt;&lt;b&gt;SCREEN STATUS AGGREGATOR&lt;/b&gt;&lt;/font&gt;" style="rounded=0;whiteSpace=wrap;html=1;" vertex="1" parent="1">
          <mxGeometry x="-30" y="-300" width="320" height="200" as="geometry" />
        </mxCell>
        <mxCell id="9W12TI6e14hfP81aTXPU-25" value="&lt;div style=&quot;&quot;&gt;&lt;b style=&quot;font-size: 32px; background-color: initial;&quot;&gt;BRANCH&amp;nbsp; &amp;nbsp;SERVER 1&lt;/b&gt;&lt;/div&gt;" style="text;html=1;align=center;verticalAlign=middle;whiteSpace=wrap;rounded=0;" vertex="1" parent="1">
          <mxGeometry x="-150" y="-580" width="240" height="100" as="geometry" />
        </mxCell>
        <mxCell id="9W12TI6e14hfP81aTXPU-26" value="" style="rounded=0;whiteSpace=wrap;html=1;fillColor=#f8cecc;strokeColor=#b85450;strokeWidth=2;" vertex="1" parent="1">
          <mxGeometry x="-490" y="-1190" width="650" height="360" as="geometry" />
        </mxCell>
        <mxCell id="9W12TI6e14hfP81aTXPU-27" value="&lt;div style=&quot;&quot;&gt;&lt;b style=&quot;font-size: 32px; background-color: initial;&quot;&gt;SCREEN 1&lt;/b&gt;&lt;/div&gt;" style="text;html=1;align=center;verticalAlign=middle;whiteSpace=wrap;rounded=0;" vertex="1" parent="1">
          <mxGeometry x="-285" y="-1150" width="240" height="100" as="geometry" />
        </mxCell>
        <mxCell id="9W12TI6e14hfP81aTXPU-28" value="&lt;font style=&quot;font-size: 22px;&quot;&gt;&lt;b&gt;MENU DISPLAY&lt;/b&gt;&lt;/font&gt;" style="rounded=0;whiteSpace=wrap;html=1;" vertex="1" parent="1">
          <mxGeometry x="-430" y="-1030" width="230" height="150" as="geometry" />
        </mxCell>
        <mxCell id="9W12TI6e14hfP81aTXPU-29" value="&lt;font style=&quot;font-size: 22px;&quot;&gt;&lt;b&gt;ADS DISPLAY&amp;nbsp;&lt;/b&gt;&lt;/font&gt;" style="rounded=0;whiteSpace=wrap;html=1;" vertex="1" parent="1">
          <mxGeometry x="-140" y="-1030" width="230" height="150" as="geometry" />
        </mxCell>
        <mxCell id="9W12TI6e14hfP81aTXPU-30" value="" style="shape=flexArrow;endArrow=classic;html=1;rounded=0;entryX=0;entryY=0.5;entryDx=0;entryDy=0;exitX=0.516;exitY=-0.01;exitDx=0;exitDy=0;exitPerimeter=0;" edge="1" parent="1" source="niRnwTXEPSCgCutxQzIc-184" target="9W12TI6e14hfP81aTXPU-14">
          <mxGeometry width="50" height="50" relative="1" as="geometry">
            <mxPoint x="-2100" y="1360" as="sourcePoint" />
            <mxPoint x="-2050" y="1310" as="targetPoint" />
            <Array as="points">
              <mxPoint x="-1876" y="1015" />
            </Array>
          </mxGeometry>
        </mxCell>
        <mxCell id="9W12TI6e14hfP81aTXPU-31" value="SEND MENU / ADS&amp;nbsp; UPDATES&amp;nbsp;&lt;div&gt;VIEW SCREEN STATUS&amp;nbsp;&lt;/div&gt;&lt;div&gt;VIEW CURRENT MENU / ADS&lt;/div&gt;" style="edgeLabel;html=1;align=center;verticalAlign=middle;resizable=0;points=[];" vertex="1" connectable="0" parent="9W12TI6e14hfP81aTXPU-30">
          <mxGeometry x="0.0341" y="4" relative="1" as="geometry">
            <mxPoint as="offset" />
          </mxGeometry>
        </mxCell>
        <mxCell id="9W12TI6e14hfP81aTXPU-32" value="" style="shape=flexArrow;endArrow=classic;html=1;rounded=0;exitX=0.222;exitY=1;exitDx=0;exitDy=0;exitPerimeter=0;entryX=1;entryY=0.5;entryDx=0;entryDy=0;" edge="1" parent="1" source="9W12TI6e14hfP81aTXPU-14" target="niRnwTXEPSCgCutxQzIc-184">
          <mxGeometry width="50" height="50" relative="1" as="geometry">
            <mxPoint x="-1820" y="1180" as="sourcePoint" />
            <mxPoint x="-1770" y="1130" as="targetPoint" />
            <Array as="points">
              <mxPoint x="-1390" y="1650" />
            </Array>
          </mxGeometry>
        </mxCell>
        <mxCell id="9W12TI6e14hfP81aTXPU-33" value="&lt;div&gt;STATUS OF UPDATES REQUESTS&amp;nbsp;&lt;/div&gt;&lt;div&gt;VIEW SCREENS DATA&amp;nbsp;&lt;/div&gt;&lt;div&gt;VIEW MENUS AND ADS&lt;/div&gt;" style="edgeLabel;html=1;align=center;verticalAlign=middle;resizable=0;points=[];" vertex="1" connectable="0" parent="9W12TI6e14hfP81aTXPU-32">
          <mxGeometry x="0.0534" y="3" relative="1" as="geometry">
            <mxPoint y="-1" as="offset" />
          </mxGeometry>
        </mxCell>
        <mxCell id="9W12TI6e14hfP81aTXPU-34" value="" style="shape=flexArrow;endArrow=classic;html=1;rounded=0;entryX=0;entryY=0.5;entryDx=0;entryDy=0;exitX=0.546;exitY=0;exitDx=0;exitDy=0;exitPerimeter=0;" edge="1" parent="1" source="niRnwTXEPSCgCutxQzIc-250" target="9W12TI6e14hfP81aTXPU-20">
          <mxGeometry width="50" height="50" relative="1" as="geometry">
            <mxPoint x="-750" y="-40" as="sourcePoint" />
            <mxPoint x="-854" y="-171" as="targetPoint" />
            <Array as="points">
              <mxPoint x="-1180" y="-171" />
            </Array>
          </mxGeometry>
        </mxCell>
        <mxCell id="9W12TI6e14hfP81aTXPU-35" value="SEND MENU / ADS&amp;nbsp; UPDATES&amp;nbsp;&lt;div&gt;&lt;br&gt;&lt;/div&gt;" style="edgeLabel;html=1;align=center;verticalAlign=middle;resizable=0;points=[];" vertex="1" connectable="0" parent="9W12TI6e14hfP81aTXPU-34">
          <mxGeometry x="0.0341" y="4" relative="1" as="geometry">
            <mxPoint as="offset" />
          </mxGeometry>
        </mxCell>
        <mxCell id="9W12TI6e14hfP81aTXPU-36" value="" style="shape=flexArrow;endArrow=classic;html=1;rounded=0;exitX=0.69;exitY=1.004;exitDx=0;exitDy=0;exitPerimeter=0;entryX=1.003;entryY=0.393;entryDx=0;entryDy=0;entryPerimeter=0;" edge="1" parent="1" source="9W12TI6e14hfP81aTXPU-20" target="niRnwTXEPSCgCutxQzIc-250">
          <mxGeometry width="50" height="50" relative="1" as="geometry">
            <mxPoint x="350" y="450" as="sourcePoint" />
            <mxPoint x="280" y="891" as="targetPoint" />
            <Array as="points">
              <mxPoint x="230" y="1060" />
            </Array>
          </mxGeometry>
        </mxCell>
        <mxCell id="9W12TI6e14hfP81aTXPU-37" value="&lt;div&gt;SCREEN HEARTBEAT AND HARDWARE STATUS&amp;nbsp;&lt;/div&gt;&lt;div&gt;CURRENT MENU AND ADS&lt;/div&gt;" style="edgeLabel;html=1;align=center;verticalAlign=middle;resizable=0;points=[];" vertex="1" connectable="0" parent="9W12TI6e14hfP81aTXPU-36">
          <mxGeometry x="0.0534" y="3" relative="1" as="geometry">
            <mxPoint y="-1" as="offset" />
          </mxGeometry>
        </mxCell>
        <mxCell id="9W12TI6e14hfP81aTXPU-38" value="" style="shape=flexArrow;endArrow=classic;html=1;rounded=0;entryX=0.162;entryY=1.002;entryDx=0;entryDy=0;entryPerimeter=0;exitX=0.229;exitY=-0.001;exitDx=0;exitDy=0;exitPerimeter=0;" edge="1" parent="1" source="9W12TI6e14hfP81aTXPU-20" target="9W12TI6e14hfP81aTXPU-26">
          <mxGeometry width="50" height="50" relative="1" as="geometry">
            <mxPoint x="-410" y="-750" as="sourcePoint" />
            <mxPoint x="-360" y="-800" as="targetPoint" />
          </mxGeometry>
        </mxCell>
        <mxCell id="9W12TI6e14hfP81aTXPU-39" value="&lt;font style=&quot;font-size: 24px;&quot;&gt;ADS / MENUS&amp;nbsp;&lt;/font&gt;" style="edgeLabel;html=1;align=center;verticalAlign=middle;resizable=0;points=[];" vertex="1" connectable="0" parent="9W12TI6e14hfP81aTXPU-38">
          <mxGeometry x="0.0666" y="-3" relative="1" as="geometry">
            <mxPoint as="offset" />
          </mxGeometry>
        </mxCell>
        <mxCell id="9W12TI6e14hfP81aTXPU-40" value="" style="shape=flexArrow;endArrow=classic;html=1;rounded=0;exitX=0.731;exitY=1;exitDx=0;exitDy=0;exitPerimeter=0;entryX=0.509;entryY=0.002;entryDx=0;entryDy=0;entryPerimeter=0;" edge="1" parent="1" source="9W12TI6e14hfP81aTXPU-26" target="9W12TI6e14hfP81aTXPU-20">
          <mxGeometry width="50" height="50" relative="1" as="geometry">
            <mxPoint x="-30.329999999999984" y="-602" as="sourcePoint" />
            <mxPoint x="-180" y="-660" as="targetPoint" />
          </mxGeometry>
        </mxCell>
        <mxCell id="9W12TI6e14hfP81aTXPU-41" value="&lt;font style=&quot;font-size: 24px;&quot;&gt;SCREEN STATUS&lt;/font&gt;" style="edgeLabel;html=1;align=center;verticalAlign=middle;resizable=0;points=[];" vertex="1" connectable="0" parent="9W12TI6e14hfP81aTXPU-40">
          <mxGeometry x="0.0666" y="-3" relative="1" as="geometry">
            <mxPoint as="offset" />
          </mxGeometry>
        </mxCell>
      </root>
    </mxGraphModel>
  </diagram>
</mxfile>
